<?xml version="1.0" standalone="no"?><!DOCTYPE svg PUBLIC "-//W3C//DTD SVG 1.1//EN" "http://www.w3.org/Graphics/SVG/1.1/DTD/svg11.dtd"><svg t="1522743585688" class="icon" style="" viewBox="0 0 1024 1024" version="1.1" xmlns="http://www.w3.org/2000/svg" p-id="2524" xmlns:xlink="http://www.w3.org/1999/xlink" width="200" height="200"><defs><style type="text/css"></style></defs><path d="M524.8 588.8c-15.36 0-25.6 10.24-25.6 25.6v102.4c0 15.36 10.24 25.6 25.6 25.6s25.6-10.24 25.6-25.6v-102.4c0-15.36-10.24-25.6-25.6-25.6z m204.8-102.4v-204.8c0-112.64-92.16-204.8-204.8-204.8s-204.8 92.16-204.8 204.8v204.8c-33.28 43.52-51.2 94.72-51.2 153.6 0 140.8 115.2 256 256 256s256-115.2 256-256c0-56.32-17.92-110.08-51.2-153.6z m-358.4-204.8c0-84.48 69.12-153.6 153.6-153.6s153.6 69.12 153.6 153.6v153.6c-43.52-33.28-94.72-51.2-153.6-51.2s-110.08 20.48-153.6 51.2v-153.6z m153.6 563.2c-112.64 0-204.8-92.16-204.8-204.8s92.16-204.8 204.8-204.8c110.08 0 204.8 94.72 204.8 204.8 0 112.64-92.16 204.8-204.8 204.8z" p-id="2525" fill="#cdcdcd"></path></svg>